<svg version="1.1" viewBox="0.0 0.0 755.9055118110236 755.9055118110236" fill="none" stroke="none" stroke-linecap="square" stroke-miterlimit="10" xmlns:xlink="http://www.w3.org/1999/xlink" xmlns="http://www.w3.org/2000/svg"><clipPath id="p.0"><path d="m0 0l755.9055 0l0 755.9055l-755.9055 0l0 -755.9055z" clip-rule="nonzero"/></clipPath><g clip-path="url(#p.0)"><path fill="#000000" fill-opacity="0.0" d="m0 0l755.9055 0l0 755.9055l-755.9055 0z" fill-rule="evenodd"/><path fill="#262626" d="m126.636086 377.95297l0 0c0 -155.087 125.42686 -280.80984 280.14874 -280.80984l0 0c74.30008 0 145.55698 29.585236 198.09506 82.24729c52.538086 52.662064 82.05365 124.08716 82.05365 198.56256l0 0c0 155.087 -125.42682 280.80984 -280.1487 280.80984l0 0c-154.72188 0 -280.14874 -125.72284 -280.14874 -280.80984z" fill-rule="evenodd"/><path fill="#1a1a1a" d="m182.99283 377.95297l0 0c0 -123.88858 100.1951 -224.32011 223.79199 -224.32011l0 0c59.353333 0 116.27573 23.633652 158.24484 65.70184c41.969116 42.06816 65.54718 99.12486 65.54718 158.61827l0 0c0 123.88855 -100.19513 224.3201 -223.79202 224.3201l0 0c-123.59689 0 -223.79199 -100.43155 -223.79199 -224.3201z" fill-rule="evenodd"/><path fill="#000000" d="m238.8157 377.95297l0 0c0 -92.98572 75.20233 -168.36551 167.96912 -168.36551l0 0c44.548187 0 87.27179 17.73845 118.772125 49.31311c31.500305 31.574646 49.19702 74.39908 49.19702 119.0524l0 0c0 92.98569 -75.20236 168.36551 -167.96915 168.36551l0 0c-92.766785 0 -167.96912 -75.37982 -167.96912 -168.36551z" fill-rule="evenodd"/><path fill="#bf9000" d="m389.669 355.90112l-2.8361816 1.0145264l2.6304321 4.4649963l0 3.6567078l-1.4180908 3.0491333l4.860443 5.4795227l7.4964294 3.0435486l11.950928 0.2062378l14.386719 -3.2497864l-1.6238708 -3.0435486l-3.036377 1.8283386l-5.066223 1.4214478l-5.466614 0l-8.91452 -2.034607l-5.066223 -3.6511536l-6.8847046 -8.528656z" fill-rule="evenodd"/><path fill="#efefef" d="m423.79227 370.52246l3.8483276 -2.0346375l5.8725586 2.0346375l15.398834 2.4359436l8.908997 0l9.320496 2.8428955l7.2906494 0.80825806l7.0904846 -2.6366272l4.2542725 -2.8428955l10.738586 -2.2352905l10.126892 -2.0290222l14.992889 -2.2352905l3.6480713 -3.0435486l1.8185425 -7.921051l10.53833 -6.700287l1.8240967 -6.2933655l-4.054077 -10.150757l-6.078369 -5.485077l-7.2906494 -0.4069214l-9.926697 -1.4214478l-5.266388 -2.6366272l-3.6481323 -3.6567383l2.6359863 -2.842865l0 -3.249817l2.6304321 -6.700287l0.20578003 -10.557678l3.4423218 1.6221008l4.454529 -1.8283386l7.902405 -6.494049l6.078308 -1.8283691l6.078369 -8.121704l6.072754 1.8283386l15.398865 -4.2643127l9.114746 -3.2497864l17.82904 -4.0636597l23.295654 -9.13623l13.775024 -9.136261l15.193054 -11.371521l13.569214 -14.621338l7.49646 -10.35701l19.247131 -18.071808l12.557068 -7.508545l23.501465 -12.792969l15.59906 -7.7203827l14.787109 -5.072586l0 -128.5373l-34.64044 0l-11.344788 7.720375l-20.665222 16.243446l-29.374023 20.507767l-23.49591 14.214409l-14.992859 6.499611l-6.2785645 4.2643204l-15.799194 12.993645l-16.41101 8.121727l-17.01709 6.092682l-34.028748 7.3078766l-30.591888 3.8574066l-21.065643 5.485092l-6.484314 2.4359589l-17.829071 1.4214325l-12.762848 1.0145264l-12.963043 5.485092l-13.975189 13.601227l-7.7022095 12.999222l-12.963043 27.208054l-26.332062 49.951096l-3.6481323 8.935577l-2.0242615 11.572205l4.254303 10.557678l5.266388 12.993652l5.872589 14.827576l4.660248 16.444122l8.708771 21.728546l6.0783386 -2.642212l1.4180908 4.2643127l3.6481323 6.2989197l7.4964294 6.2933655l9.720886 2.0290527l9.726471 -0.2006836l7.8968506 -3.8573914" fill-rule="evenodd"/><path fill="#999999" d="m369.70447 269.39948l8.1026 -0.4069214l10.126862 2.2352905l7.6966553 2.23526l7.4964294 4.4649963l2.4302368 3.6567383l2.4302063 -4.671234l6.2841187 -12.386047l2.0242615 -5.4851074l-0.20578003 -6.494034l-3.6425476 -9.950073l-4.2542725 -9.543167l-5.2664185 -5.284424l10.126862 9.342499l4.054077 8.528641l2.6304321 9.74942l2.6359863 3.4504852l8.302795 4.4649963l5.2664185 6.092682l8.1026 -4.0636597l1.0177002 -3.0435486l-0.40597534 -13.19989l2.4302368 -2.8428802l-3.8483276 -7.714813l-2.8361816 -12.792969l-5.066223 -10.758347l-4.860443 -9.548737l-14.180939 -14.008163l10.532806 7.107193l-0.81192017 -6.4996033l7.0904846 14.420654l10.538391 16.650375l10.126862 9.136246l9.720886 7.3078766l4.054077 -11.778458l-7.29068 -10.557678l-4.2542725 -12.792969l4.6546936 0.61317444l2.435791 7.9154663l5.0606384 11.577774l3.0419617 -6.9065247l-5.4721985 -37.76573l7.902405 34.92285l-13.168793 32.08554l-11.950928 13.601242l-5.8781433 7.1072083l-8.302795 5.278839l-3.6481323 -5.278839l-7.6966248 -4.058075l-6.6845093 1.4214478l-12.963074 23.350647l-0.81192017 -8.734894l-6.0783386 -2.8428955l-9.926666 -4.058075l-12.762848 -1.6276855z" fill-rule="evenodd"/><path fill="#999999" d="m496.92145 287.2706l7.0904846 3.2442322l5.2664185 2.8428955l-1.2178955 4.4705505l-5.2664185 -2.4359436l0.20574951 3.0435486l-2.4302063 2.4359741l1.0121155 7.9210205l-1.6238403 5.886444l-3.6425781 -4.8719177l-8.714325 -0.4069214l10.332642 4.6712646l0.81192017 4.671234l6.6845093 5.278839l11.750702 0.4069214l-3.0419312 4.671234l-5.672394 4.058075l-13.975159 -0.8138428l-10.132446 1.2207642l-5.466614 -7.1072083l-7.296234 -6.4996033l6.8902893 -14.008148l7.090454 -6.4996033l5.2664185 -7.915497z" fill-rule="evenodd"/><path fill="#f1c232" d="m386.51584 355.08728l-5.0661926 1.4214172l-4.048523 1.8283691l-5.066223 3.043579l-4.4544983 3.2497864l-3.6481018 3.4560547l-2.6304321 4.058075l-2.230011 5.0781555l-1.8240662 8.121735l0.81192017 7.1072083l1.2123413 7.1072083l2.6359863 6.4940186l2.6304321 4.8775024l6.284088 7.307892l5.060669 3.2497864l7.090454 3.6567383l6.2841187 1.6221008l8.302795 0.8138428l7.29068 -1.8283386l8.30835 -3.8574219l5.4666443 -3.4560547l3.6481018 -4.4649963l2.8361816 -4.8719177l2.4302368 -6.4996033l1.2178955 -7.5141296l0 -6.90094l-1.012146 -6.499634l-2.8361816 -7.7147827l-2.4302368 -3.249817l-7.702179 -8.121704l-9.520691 -4.4649963z" fill-rule="evenodd"/><path fill="#d9d9d9" d="m379.83133 357.32257l5.872589 -1.6277161l0.61172485 -8.729309l4.2542725 -9.342499l-4.8659973 -3.8573914l-5.2664185 -5.6857605l1.2178955 -17.257965l-5.2664185 -2.6366272l-1.8240662 -6.4996033l-7.2906494 -6.2933655l-1.8240662 -22.336151l3.8483276 -14.621307l11.344757 -19.292587l17.01712 -32.486893l13.975189 -14.621338l15.193054 3.656723l7.902405 -13.19989l7.0904846 0.61317444l3.8483276 15.836533l11.344757 13.19989l0.80636597 -7.3134613l9.926636 17.464218l3.8483276 -3.4504852l-3.6425476 -22.336136l-1.8240662 -15.435165l4.4544983 11.778442l1.4180908 17.664886l1.0121155 7.5141296l-4.454468 5.4795227l-2.6304321 11.778442l-12.362457 20.71402l-13.774963 14.008148l-10.532837 5.892029l-7.4964294 7.7147827l-7.8968506 12.586731l-11.950928 21.728546l-10.132416 16.042755l-0.20019531 6.9009705l12.557068 -12.17981l10.132446 1.0145264l10.532806 14.2144165l17.623322 -8.734894l21.877563 -19.493256l25.319946 -33.908325l19.447357 -14.621338l7.7022095 -16.0372l-8.508575 -2.642212l-10.332611 -11.572205l11.544952 -13.19989l45.378998 -31.67862l31.604065 -25.585938l44.161133 -35.12352l45.77942 -30.664108l16.816956 -30.457855l18.43518 -17.66489l29.36847 -12.592293l3.6481323 -7.3078804l-35.246582 0l-19.041382 11.77845l-16.611206 14.62133l-31.80426 20.914696l-26.337585 15.022675l-13.168823 6.9065323l-19.647583 16.0372l-23.295654 9.749413l-36.870483 9.136238l-14.586884 0.8138428l-32.004456 6.092697l-8.30838 3.0435486l-15.3932495 2.8428802l-17.423126 0.4069214l-7.89682 2.6366425l-9.726471 5.485092l-13.369019 11.778442l-13.369019 23.14441l-10.332611 20.307083l-10.332642 23.5569l-15.799225 31.879303l-2.4302368 7.714813l1.2123413 7.3078613l5.066223 9.74942l7.090454 18.47873l5.466614 18.880096l4.4600525 10.156311l2.8361816 8.935577z" fill-rule="evenodd"/><path fill="#b7b7b7" d="m515.15094 276.50668l5.6723633 -14.621338l2.6359863 -10.758362l-3.6481323 20.708435l-1.8240356 6.092682l4.054077 -3.0435486l6.8847046 -16.042755l2.2300415 -11.979141l0.40594482 8.528656l5.066223 -12.185379l-5.878174 18.272491l-5.6723633 14.013733l4.2542725 -2.4359741l7.2962646 -8.121704l5.060608 -8.734894l3.4423828 -12.993652l-3.036377 15.028259l-6.8847046 13.194305l-4.054077 3.8574219l12.156677 -1.822815l6.6845093 -4.877472l10.126831 -14.4151l5.6723633 -17.664886l-3.8482666 17.664886l-12.762878 18.272491l-8.70874 2.642212l-12.968628 1.8283691l-4.8604736 -0.4069214l-5.8725586 2.6366272z" fill-rule="evenodd"/><path fill="#d9d9d9" d="m550.6033 272.0417l20.865479 -7.3134766l19.647522 -10.758347l20.865479 -15.842102l13.774963 -13.80748l12.968628 -10.758362l8.1026 -7.921051l-2.6359863 4.4649963l-8.70874 11.979126l-15.59906 13.606812l-26.131897 20.914703l-26.131836 12.592285z" fill-rule="evenodd"/><path fill="#efefef" d="m391.58206 336.8148l-3.6481323 5.886444l-1.4180908 3.8573914l-0.40594482 7.1072083l2.0298157 5.8919983l3.6425476 4.8719177l7.296234 6.9009705l9.720886 2.8428955l7.49646 -1.4214478l6.0783386 -2.2297058l29.980194 -30.257202l19.041382 -20.307098" fill-rule="evenodd"/><path fill="#333333" d="m669.88446 54.828773l12.434753 -4.5932045l12.434753 -0.65776443l8.51416 3.283249l7.196106 7.2131195l4.5823975 7.8764496l4.5823975 11.154137l4.5823975 12.464081l-0.65625 11.154137l-0.65063477 25.585938l-3.9317627 23.61821l-3.2699585 11.154129l-12.434692 27.559235l47.125183 -16.405106l2.6193237 -148.27579l-56.946228 -0.65776443z" fill-rule="evenodd"/><path stroke="#333333" stroke-width="1.0" stroke-linejoin="round" stroke-linecap="butt" d="m669.88446 54.828773l12.434753 -4.5932045l12.434753 -0.65776443l8.51416 3.283249l7.196106 7.2131195l4.5823975 7.8764496l4.5823975 11.154137l4.5823975 12.464081l-0.65625 11.154137l-0.65063477 25.585938l-3.9317627 23.61821l-3.2699585 11.154129l-12.434692 27.559235l47.125183 -16.405106l2.6193237 -148.27579l-56.946228 -0.65776443z" fill-rule="evenodd"/><path fill="#000000" fill-opacity="0.2038" d="m386.49216 354.4908l-6.2674255 2.4025269l2.396881 5.7247925l4.421112 7.3914795l7.0070496 5.3568726l11.978729 3.5118103l14.37558 0.18395996l5.7113037 -2.9543762l-1.1011047 -2.5864563l-2.7694397 -3.3278503l-4.9716797 2.5864563l-8.297241 1.2932434l-9.765381 -2.9543762l-6.2674255 -5.5408325l-4.977234 -5.9143066z" fill-rule="evenodd"/><path fill="#efefef" d="m16.814398 583.31494l8.914532 -2.0290527l44.56154 -2.435913l31.40384 -1.2208252l37.476624 -5.072571l35.652557 -7.514099l46.791565 -15.228943l18.841187 -10.9646l5.8781433 -8.121704l7.29068 -7.3134766l11.750702 -5.072571l23.295685 -5.685791l21.471619 -5.485077l22.083344 -1.6221313l20.253723 0.4069214l13.374573 -2.4359436l24.30783 -10.763947l22.283539 -7.5141296l15.799255 -2.6366272l8.508545 2.4359436l7.0904846 5.685791l2.8361816 8.929993l1.4180908 10.356995l-7.29068 9.950073l-17.628845 9.749451l-13.975189 7.9154663l-22.283539 7.9210205l12.356873 4.0636597l6.6845093 2.6366577l10.126862 -4.8719482l16.611176 -2.8428955l15.59903 0.8138428l6.8902893 0l7.902405 -11.371521l7.89682 -8.734863l9.320496 -7.7148438l10.733032 -23.5513l4.054077 -6.092682l6.484314 -3.4560547l5.872589 -3.45047l10.332611 0.607605l3.4423828 3.6567078l3.8483276 6.2933655l-10.532837 18.684967l-0.6062012 8.929993l-7.090454 17.670471l-18.435242 30.864807l-5.8725586 4.0580444l-5.8781433 5.078186l-6.0783386 8.935547l-15.799255 17.664917l-8.302795 5.2788086l-6.890259 9.336914l7.2906494 -9.743835l8.30838 -4.6712036l21.065643 -26.193542l12.356903 -9.543213l17.623291 -29.643982l7.702179 -17.871155l15.193115 -15.836517l11.950928 -23.149963l2.4301758 -9.543182l5.2664185 -6.9065247l10.938782 -7.1072083l8.508606 -0.80825806l8.91449 5.4795227l2.024292 5.8919983l-2.8361816 10.35144l-5.060669 14.420654l-8.108154 21.92923l-7.490906 13.606812l-7.090454 15.022644l-14.180908 19.086365l-9.114746 11.577759l-11.550537 7.3078613l-13.163239 10.763977l13.569183 -10.563293l10.938843 -5.68573l9.320496 -11.772888l14.987305 -20.507751l14.792664 -28.63507l8.508545 -20.10086l8.1026 -14.2144165l5.2664185 -7.1072083l7.2907104 -4.058075l11.950867 -2.8428955l9.926697 5.0726013l2.8361816 6.29895l-1.012146 10.150757l-8.1026 11.371521l-9.320496 19.286987l-10.327026 13.606812l-6.89032 6.293396l-12.156677 15.028259l-11.544922 9.342468l-10.532837 13.400574l-9.114746 4.6712036l-11.750732 4.2643433l-18.841187 9.944519l-23.49588 9.950073l-13.574768 5.2788696l-16.81137 10.970154l-27.349762 17.664917l-8.30835 2.8428955l-22.88974 0.60754395l-45.77942 2.642212l-33.4281 0l-32.61618 5.680237l-43.955353 9.141785l-32.01001 6.4940186l-34.840637 6.906555l-40.918976 9.743835l-50.64544 15.228943l-64.62062 18.071777z" fill-rule="evenodd"/><path fill="#cccccc" d="m18.432693 716.7241l116.68416 -33.30072l71.305115 -17.057312l31.60405 -2.435913l46.99733 -12.993652l51.05139 -5.685791l46.185394 0l41.32495 -4.0636597l25.11972 -17.057251l30.792114 -17.057312l35.652557 -13.807495l29.980225 -16.243408l22.689453 -19.493286l21.877625 -25.987244l10.538391 -12.999268l12.151123 -25.987274l-16.2052 25.987274l-15.393311 17.871155l-21.877563 12.17981l-17.01715 5.68573l-14.586914 13.807495l-20.259277 16.249023l-20.259277 0.8082886l-8.1026 -12.993652l-12.963043 16.24347l-21.877594 17.057251l-27.549957 13.807495l-25.119751 6.499634l-50.23947 1.6221313l-45.37903 8.121704l-61.57866 10.557678l-86.703964 12.999207l-90.75804 23.55133l-42.943237 15.435181z" fill-rule="evenodd"/><path fill="#999999" d="m482.3331 570.9289l-5.466614 -1.0145264l-6.6900635 -6.7002563l9.320496 5.891968l6.278534 0.4013672l3.6481323 -3.651123l-4.2542725 -1.8283691l6.6845093 0.2006836l1.8240356 -4.0581055l-6.278534 -1.0145264l8.708771 -1.6276855l3.0419617 -6.0926514l5.266388 -10.35144l-8.508545 -4.0636597l10.126862 -1.2207642l3.848297 -8.121704l1.8240662 -20.708466l2.8362122 4.8719177l-0.8119507 6.0927124l-4.660248 14.415039l-5.666809 12.386047l-6.2841187 12.592285l-6.6845093 9.336914l-5.266388 4.6712646l-4.660248 4.0636597l-1.4181213 -2.2352905z" fill-rule="evenodd"/><path fill="#999999" d="m429.66342 569.30676l-3.6481323 3.6567383l-1.6182861 6.90094l-0.40597534 5.078186l3.4423523 12.792969l-1.4180908 -9.13623l2.2300415 -13.406128z" fill-rule="evenodd"/><path fill="#999999" d="m610.768 496.2057l-4.6602783 1.0145264l-3.2421265 5.892029l-7.6966553 12.586731l-13.975159 17.464172l-21.271423 13.606812l-16.816956 5.2788696l-1.6182861 3.4504395l18.635437 -6.906494l21.471619 -11.572205l14.992859 -18.47876z" fill-rule="evenodd"/><path fill="#333333" d="m91.91779 573.1419l-10.477219 -6.560974l-15.054039 9.186462l-7.1961365 13.774048l-3.2755203 14.437378l0 13.779602l0 23.618225l9.16478 26.901428l9.164787 15.74176l13.090958 13.121887l13.090958 7.218689l-97.53153 26.243713l3.9317362 -164.0232l83.7788 -15.747314z" fill-rule="evenodd"/><path stroke="#333333" stroke-width="1.0" stroke-linejoin="round" stroke-linecap="butt" d="m91.91779 573.1419l-10.477219 -6.560974l-15.054039 9.186462l-7.1961365 13.774048l-3.2755203 14.437378l0 13.779602l0 23.618225l9.16478 26.901428l9.164787 15.74176l13.090958 13.121887l13.090958 7.218689l-97.53153 26.243713l3.9317362 -164.0232l83.7788 -15.747314z" fill-rule="evenodd"/></g></svg>